<svg width="157" height="64" viewBox="0 0 157 64" fill="none" xmlns="http://www.w3.org/2000/svg">
<path d="M33.5999 8H14.3999V56H33.5999V8Z" fill="#3CABFF"/>
<path d="M0 22.4L0 41.6H48V22.4L0 22.4Z" fill="#3CABFF"/>
<path d="M31.8806 36.4644C31.5094 35.4054 30.6441 34.8688 29.8088 34.3499C29.0819 33.8981 28.3955 33.4711 27.9467 32.7046C26.7093 30.5813 26.0297 29.3 24.0025 29.3C21.9754 29.3 21.2937 30.5817 20.0534 32.7041C19.6041 33.4724 18.9143 33.9002 18.1866 34.3528C17.3513 34.8722 16.4877 35.4075 16.1151 36.4644C15.9702 36.8454 15.8972 37.2501 15.9 37.6578C15.9 39.3765 17.269 40.7751 18.7856 40.7751C20.3022 40.7751 22.3002 40.0102 24.0068 40.0102C25.7132 40.0102 27.6834 40.7751 29.219 40.7751C30.7547 40.7751 32.1 39.3765 32.1 37.6578C32.1012 37.2499 32.0268 36.8452 31.8806 36.4644Z" fill="black"/>
<path d="M16.2375 33.35C17.5423 33.35 18.6 31.9901 18.6 30.3125C18.6 28.635 17.5423 27.275 16.2375 27.275C14.9327 27.275 13.875 28.635 13.875 30.3125C13.875 31.9901 14.9327 33.35 16.2375 33.35Z" fill="black"/>
<path d="M20.9626 29.3C22.2674 29.3 23.3251 27.94 23.3251 26.2625C23.3251 24.5849 22.2674 23.225 20.9626 23.225C19.6578 23.225 18.6001 24.5849 18.6001 26.2625C18.6001 27.94 19.6578 29.3 20.9626 29.3Z" fill="black"/>
<path d="M27.0373 29.3C28.3421 29.3 29.3998 27.94 29.3998 26.2625C29.3998 24.5849 28.3421 23.225 27.0373 23.225C25.7325 23.225 24.6748 24.5849 24.6748 26.2625C24.6748 27.94 25.7325 29.3 27.0373 29.3Z" fill="black"/>
<path d="M31.7624 33.35C33.0672 33.35 34.1249 31.9901 34.1249 30.3125C34.1249 28.635 33.0672 27.275 31.7624 27.275C30.4576 27.275 29.3999 28.635 29.3999 30.3125C29.3999 31.9901 30.4576 33.35 31.7624 33.35Z" fill="black"/>
<path d="M69.608 25.4L64.154 38H61.274L55.838 25.4H58.988L62.822 34.4L66.71 25.4H69.608ZM80.416 35.66V38H70.66V25.4H80.182V27.74H73.558V30.476H79.408V32.744H73.558V35.66H80.416ZM85.3462 27.776H81.3142V25.4H92.2942V27.776H88.2622V38H85.3462V27.776ZM94.1295 38.144C93.6375 38.144 93.2235 37.976 92.8875 37.64C92.5515 37.304 92.3835 36.884 92.3835 36.38C92.3835 35.864 92.5515 35.45 92.8875 35.138C93.2235 34.814 93.6375 34.652 94.1295 34.652C94.6215 34.652 95.0355 34.814 95.3715 35.138C95.7075 35.45 95.8755 35.864 95.8755 36.38C95.8755 36.884 95.7075 37.304 95.3715 37.64C95.0355 37.976 94.6215 38.144 94.1295 38.144ZM97.9764 25.4H103.7C105.068 25.4 106.274 25.664 107.318 26.192C108.374 26.708 109.19 27.44 109.766 28.388C110.354 29.336 110.648 30.44 110.648 31.7C110.648 32.96 110.354 34.064 109.766 35.012C109.19 35.96 108.374 36.698 107.318 37.226C106.274 37.742 105.068 38 103.7 38H97.9764V25.4ZM103.556 35.606C104.816 35.606 105.818 35.258 106.562 34.562C107.318 33.854 107.696 32.9 107.696 31.7C107.696 30.5 107.318 29.552 106.562 28.856C105.818 28.148 104.816 27.794 103.556 27.794H100.892V35.606H103.556ZM118.302 25.4C119.418 25.4 120.384 25.586 121.2 25.958C122.028 26.33 122.664 26.858 123.108 27.542C123.552 28.226 123.774 29.036 123.774 29.972C123.774 30.896 123.552 31.706 123.108 32.402C122.664 33.086 122.028 33.614 121.2 33.986C120.384 34.346 119.418 34.526 118.302 34.526H115.764V38H112.848V25.4H118.302ZM118.14 32.15C119.016 32.15 119.682 31.964 120.138 31.592C120.594 31.208 120.822 30.668 120.822 29.972C120.822 29.264 120.594 28.724 120.138 28.352C119.682 27.968 119.016 27.776 118.14 27.776H115.764V32.15H118.14ZM126.403 38.144C125.911 38.144 125.497 37.976 125.161 37.64C124.825 37.304 124.657 36.884 124.657 36.38C124.657 35.864 124.825 35.45 125.161 35.138C125.497 34.814 125.911 34.652 126.403 34.652C126.895 34.652 127.309 34.814 127.645 35.138C127.981 35.45 128.149 35.864 128.149 36.38C128.149 36.884 127.981 37.304 127.645 37.64C127.309 37.976 126.895 38.144 126.403 38.144ZM135.725 38.216C133.925 38.216 132.521 37.718 131.513 36.722C130.517 35.726 130.019 34.304 130.019 32.456V25.4H132.935V32.348C132.935 34.604 133.871 35.732 135.743 35.732C136.655 35.732 137.351 35.462 137.831 34.922C138.311 34.37 138.551 33.512 138.551 32.348V25.4H141.431V32.456C141.431 34.304 140.927 35.726 139.919 36.722C138.923 37.718 137.525 38.216 135.725 38.216ZM152.347 35.3H146.497L145.381 38H142.393L148.009 25.4H150.889L156.523 38H153.463L152.347 35.3ZM151.429 33.086L149.431 28.262L147.433 33.086H151.429Z" fill="#333333"/>
</svg>
